<svg xmlns="http://www.w3.org/2000/svg" xmlns:xlink="http://www.w3.org/1999/xlink" width="240" zoomAndPan="magnify" viewBox="0 0 180 179.999997" height="240" preserveAspectRatio="xMidYMid meet" version="1.0"><defs><clipPath id="1d1b8fecf5"><path d="M 22.925781 22.925781 L 157.074219 22.925781 L 157.074219 157.074219 L 22.925781 157.074219 Z M 22.925781 22.925781 " clip-rule="nonzero"/></clipPath><clipPath id="7f031ca97c"><path d="M 90 22.925781 C 52.957031 22.925781 22.925781 52.957031 22.925781 90 C 22.925781 127.042969 52.957031 157.074219 90 157.074219 C 127.042969 157.074219 157.074219 127.042969 157.074219 90 C 157.074219 52.957031 127.042969 22.925781 90 22.925781 Z M 90 22.925781 " clip-rule="nonzero"/></clipPath></defs><g clip-path="url(#1d1b8fecf5)"><g clip-path="url(#7f031ca97c)"><path fill="#65bcff" d="M 22.925781 22.925781 L 157.074219 22.925781 L 157.074219 157.074219 L 22.925781 157.074219 Z M 22.925781 22.925781 " fill-opacity="1" fill-rule="nonzero"/></g></g><path fill="#40a7ff" d="M 22.5 90 C 22.5 52.722656 52.722656 22.5 90 22.5 C 127.28125 22.5 157.5 52.722656 157.5 90 C 157.5 127.28125 127.28125 157.5 90 157.5 C 52.722656 157.5 22.5 127.28125 22.5 90 Z M 22.5 90 " fill-opacity="0.24" fill-rule="nonzero"/><path fill="#ffffff" d="M 120 75 C 120 75.984375 119.953125 76.960938 119.855469 77.941406 C 119.757812 78.917969 119.613281 79.890625 119.421875 80.851562 C 119.230469 81.816406 118.992188 82.769531 118.707031 83.707031 C 118.421875 84.648438 118.09375 85.574219 117.714844 86.480469 C 117.339844 87.386719 116.921875 88.273438 116.457031 89.140625 C 115.996094 90.007812 115.488281 90.851562 114.945312 91.667969 C 114.398438 92.484375 113.8125 93.273438 113.191406 94.03125 C 112.566406 94.792969 111.90625 95.519531 111.214844 96.214844 C 110.519531 96.90625 109.792969 97.566406 109.03125 98.191406 C 108.273438 98.8125 107.484375 99.398438 106.667969 99.945312 C 105.851562 100.488281 105.007812 100.996094 104.140625 101.457031 C 103.273438 101.921875 102.386719 102.339844 101.480469 102.714844 C 100.574219 103.09375 99.648438 103.421875 98.707031 103.707031 C 97.769531 103.992188 96.816406 104.230469 95.851562 104.421875 C 94.890625 104.613281 93.917969 104.757812 92.941406 104.855469 C 91.960938 104.953125 90.984375 105 90 105 C 89.015625 105 88.039062 104.953125 87.058594 104.855469 C 86.082031 104.757812 85.109375 104.613281 84.148438 104.421875 C 83.183594 104.230469 82.230469 103.992188 81.292969 103.707031 C 80.351562 103.421875 79.425781 103.09375 78.519531 102.714844 C 77.613281 102.339844 76.726562 101.921875 75.859375 101.457031 C 74.992188 100.996094 74.148438 100.488281 73.332031 99.945312 C 72.515625 99.398438 71.726562 98.8125 70.96875 98.191406 C 70.207031 97.566406 69.480469 96.90625 68.785156 96.214844 C 68.09375 95.519531 67.433594 94.792969 66.808594 94.03125 C 66.1875 93.273438 65.601562 92.484375 65.054688 91.667969 C 64.511719 90.851562 64.003906 90.007812 63.542969 89.140625 C 63.078125 88.273438 62.660156 87.386719 62.285156 86.480469 C 61.90625 85.574219 61.578125 84.648438 61.292969 83.707031 C 61.007812 82.769531 60.769531 81.816406 60.578125 80.851562 C 60.382812 79.890625 60.242188 78.917969 60.144531 77.941406 C 60.046875 76.960938 60 75.984375 60 75 C 60 74.015625 60.046875 73.039062 60.144531 72.058594 C 60.242188 71.082031 60.382812 70.109375 60.578125 69.148438 C 60.769531 68.183594 61.007812 67.230469 61.292969 66.292969 C 61.578125 65.351562 61.90625 64.425781 62.285156 63.519531 C 62.660156 62.613281 63.078125 61.726562 63.542969 60.859375 C 64.003906 59.992188 64.511719 59.148438 65.054688 58.332031 C 65.601562 57.515625 66.1875 56.726562 66.808594 55.96875 C 67.433594 55.207031 68.09375 54.480469 68.785156 53.785156 C 69.480469 53.09375 70.207031 52.433594 70.96875 51.808594 C 71.726562 51.1875 72.515625 50.601562 73.332031 50.054688 C 74.148438 49.511719 74.992188 49.003906 75.859375 48.542969 C 76.726562 48.078125 77.613281 47.660156 78.519531 47.285156 C 79.425781 46.90625 80.351562 46.578125 81.292969 46.292969 C 82.230469 46.007812 83.183594 45.769531 84.148438 45.578125 C 85.109375 45.382812 86.082031 45.242188 87.058594 45.144531 C 88.039062 45.046875 89.015625 45 90 45 C 90.984375 45 91.960938 45.046875 92.941406 45.144531 C 93.917969 45.242188 94.890625 45.382812 95.851562 45.578125 C 96.816406 45.769531 97.769531 46.007812 98.707031 46.292969 C 99.648438 46.578125 100.574219 46.90625 101.480469 47.285156 C 102.386719 47.660156 103.273438 48.078125 104.140625 48.542969 C 105.007812 49.003906 105.851562 49.511719 106.667969 50.054688 C 107.484375 50.601562 108.273438 51.1875 109.03125 51.808594 C 109.792969 52.433594 110.519531 53.09375 111.214844 53.785156 C 111.90625 54.480469 112.566406 55.207031 113.191406 55.96875 C 113.8125 56.726562 114.398438 57.515625 114.945312 58.332031 C 115.488281 59.148438 115.996094 59.992188 116.457031 60.859375 C 116.921875 61.726562 117.339844 62.613281 117.714844 63.519531 C 118.09375 64.425781 118.421875 65.351562 118.707031 66.292969 C 118.992188 67.230469 119.230469 68.183594 119.421875 69.148438 C 119.613281 70.109375 119.757812 71.082031 119.855469 72.058594 C 119.953125 73.039062 120 74.015625 120 75 Z M 120 75 " fill-opacity="1" fill-rule="nonzero"/><path fill="#ffffff" d="M 136.65625 136.847656 C 137.09375 137.570312 136.960938 138.496094 136.347656 139.074219 C 124.253906 150.496094 107.945312 157.5 90 157.5 C 72.054688 157.5 55.746094 150.496094 43.652344 139.074219 C 43.039062 138.496094 42.90625 137.570312 43.34375 136.847656 C 52.074219 122.386719 69.691406 112.5 90 112.5 C 110.308594 112.5 127.925781 122.382812 136.65625 136.847656 Z M 136.65625 136.847656 " fill-opacity="1" fill-rule="evenodd"/></svg>